<?xml version="1.0" encoding="utf-8"?>
<!-- Generator: Adobe Illustrator 22.0.1, SVG Export Plug-In . SVG Version: 6.00 Build 0)  -->
<svg version="1.1" id="Layer_1" xmlns="http://www.w3.org/2000/svg" xmlns:xlink="http://www.w3.org/1999/xlink" x="0px" y="0px"
	 viewBox="0 0 75 75" style="enable-background:new 0 0 75 75;" xml:space="preserve">
<style type="text/css">
	.st0{fill:#FFFFFF;}
</style>
<path class="st0" d="M40.4,4.8l0,10.6c0,0,5.3,0,7.4,0c1.4,0,2.8,0,4.2,0c-3,3-6.1,6.1-9.1,9.1c-0.2,0.2-0.3,0.2-0.6,0.1
	c-1-0.6-2.1-1.2-3.1-1.7c-2.8-1.3-5.7-2-8.8-2.1c-1.9-0.1-3.9,0-5.8,0.4c-5.1,1-9.4,3.4-12.9,7c-1.9,2-3.4,4.2-4.6,6.7
	c-1.4,3-2.1,6.2-2.2,9.5c0,0.9,0,1.9,0.1,2.8c0.1,1,0.3,1.9,0.5,2.8c0,0.1,0,0.3,0.1,0.4c1.4,5.5,4.2,10.2,8.5,13.9
	c3.8,3.3,8.3,5.2,13.3,5.7c0.6,0.1,1.3,0.1,1.9,0.2c0.3,0,0.6,0,0.9,0c0.1,0,0.2-0.1,0.4-0.1c4-0.1,7.8-1.1,11.2-3.2
	c7.7-4.6,11.8-11.4,12.2-20.3c0.2-3.7-0.6-7.2-2-10.6c-0.3-0.6-0.6-1.1-0.9-1.7c0.1,0.1,0.1,0.3,0.2,0.4c-0.1-0.1-0.1-0.3-0.2-0.4
	c-0.3-0.6-0.7-1.2-1-1.9c0.1-0.1,0.3-0.2,0.4-0.3c3-3,6-6,9-9c0.1-0.1,0.3-0.2,0.4-0.4c0,1.8,0,3.5,0,5.3c0,1.7,0,6.6,0,6.6
	s7.3,0,10.3,0c0-9.7,0-20.3,0-30C69.9,4.8,40.4,4.8,40.4,4.8z M39.2,55.6c-2.5,2.4-5.5,3.8-9,4c-5.2,0.3-9.4-1.6-12.6-5.7
	c-0.6-0.7-0.9-1.6-1.4-2.4c0,0,0,0,0,0c-1-2.5-1.3-5.1-0.8-7.8c1.3-7.6,8-12.8,15.7-12.1c3.9,0.3,7.1,2.1,9.7,5
	c0.5,0.8,1,1.5,1.4,2.3c0.4,0.9,0.7,1.8,1,2.8v0C44.5,47,43.1,51.7,39.2,55.6z M56.6,24.5C56.6,24.5,56.6,24.5,56.6,24.5
	c0.6-0.5,1.1-1.1,1.7-1.6C57.7,23.4,57.1,24,56.6,24.5z"/>
</svg>
