<?xml version="1.0" encoding="utf-8"?>
<!-- Generator: Adobe Illustrator 22.0.1, SVG Export Plug-In . SVG Version: 6.00 Build 0)  -->
<svg version="1.1" id="Layer_1" xmlns="http://www.w3.org/2000/svg" xmlns:xlink="http://www.w3.org/1999/xlink" x="0px" y="0px"
	 viewBox="0 0 75 75" style="enable-background:new 0 0 75 75;" xml:space="preserve">
<style type="text/css">
	.st0{fill:#FFFFFF;}
</style>
<g>
	<path class="st0" d="M45,1l0,7.3c0,0,3.6,0,5,0c1,0,1.9,0,2.9,0c-2.1,2.1-4.1,4.1-6.2,6.2c-0.1,0.1-0.2,0.1-0.4,0
		c-0.7-0.4-1.4-0.8-2.1-1.2c-1.9-0.9-3.9-1.4-6-1.5c-1.3-0.1-2.6,0-4,0.3c-3.4,0.7-6.4,2.3-8.8,4.8c-1.3,1.3-2.3,2.9-3.1,4.6
		c-0.9,2.1-1.4,4.2-1.5,6.5c0,0.6,0,1.3,0.1,1.9c0.1,0.7,0.2,1.3,0.3,1.9c0,0.1,0,0.2,0,0.3c0.9,3.8,2.9,6.9,5.8,9.5
		c2.6,2.3,5.7,3.5,9.1,3.9c0.4,0,0.9,0.1,1.3,0.1c0.2,0,0.4,0,0.6,0c0.1,0,0.2,0,0.3,0c2.7-0.1,5.3-0.8,7.6-2.2
		c5.2-3.1,8-7.8,8.3-13.8c0.1-2.5-0.4-4.9-1.4-7.2c-0.2-0.4-0.4-0.8-0.6-1.2c0,0.1,0.1,0.2,0.1,0.3c0-0.1-0.1-0.2-0.1-0.3
		c-0.2-0.4-0.5-0.8-0.7-1.3c0.1-0.1,0.2-0.2,0.3-0.2c2-2,4.1-4.1,6.1-6.1c0.1-0.1,0.2-0.2,0.3-0.3c0,1.2,0,2.4,0,3.6
		c0,1.2,0,4.5,0,4.5s5,0,7,0c0-6.6,0-13.8,0-20.4C65.1,1.1,45,1,45,1z M44.1,35.6c-1.7,1.7-3.8,2.6-6.1,2.7
		c-3.5,0.2-6.4-1.1-8.6-3.9c-0.4-0.5-0.6-1.1-0.9-1.7c0,0,0,0,0,0c-0.7-1.7-0.9-3.5-0.6-5.3c0.9-5.2,5.5-8.7,10.7-8.3
		c2.7,0.2,4.9,1.4,6.6,3.4c0.3,0.5,0.7,1,1,1.5c0.3,0.6,0.5,1.3,0.7,1.9v0C47.7,29.8,46.8,33,44.1,35.6z M56,14.5
		C56,14.5,56,14.5,56,14.5c0.4-0.4,0.8-0.7,1.1-1.1C56.8,13.7,56.4,14.1,56,14.5z"/>
	<path class="st0" d="M43,38c-0.3-1.9-0.9-3.7-1.9-5.4c0,0,0,0,0,0c0,0,0-0.1,0-0.1c-1.3-2.4-3-4.4-5.2-5.9c-0.8-0.5-1.7-1-2.5-1.5
		c-1.5-0.7-3.1-1.2-4.7-1.4c-0.5-0.1-0.9-0.1-1.4-0.2c-0.6,0-1.2,0-1.9,0c-0.5,0.1-1,0.1-1.4,0.2c-4,0.6-7.4,2.4-10.1,5.5
		c-0.5,0.6-1,1.3-1.4,1.9c-1.6,2.5-2.5,5.2-2.6,8.1c0,0,0,0-0.1,0c0,0.6,0,1.1,0,1.7c0,0,0,0,0,0c0,1.1,0.2,2.1,0.4,3.2
		c0.7,2.7,2,5.1,3.8,7.2c0.7,0.9,1.6,1.7,2.6,2.5c1.9,1.5,4,2.5,6.4,3c0,1.1,0,2.1,0,3.2c-2.2,0-4.4,0-6.6,0c0,2.2,0,7.3,0,7.3
		s4.6,0,6.6,0c0,2,0,6.6,0,6.6s4.8,0,7,0c0-2.2,0-4.4,0-6.6c2.2,0,4.4,0,6.6,0c0-2.2,0-7.3,0-7.3s-4.4,0-6.2,0c-0.1,0-0.2,0-0.4,0
		c0-0.1,0-0.2,0-0.4c0-0.8,0-1.5,0-2.3c0-0.6-0.1-0.4,0.5-0.6c4.6-1.1,8.2-3.8,10.6-7.9C43.1,45.6,43.7,41.9,43,38z M20,47.8
		c-0.7-0.6-1.4-1.3-1.9-2.1c-0.2-0.3-0.3-0.6-0.5-0.8c-0.2-0.5-0.4-1-0.5-1.5c-1.6-5.5,2-11.3,7.6-12.4c3.8-0.7,6.9,0.4,9.5,3.3
		c0,0,0.1,0.1,0.1,0.1c0,0,0,0,0,0c0.9,1.2,1.5,2.6,1.7,4c0.4,2.8-0.2,5.3-1.8,7.5c-1.6,2.2-3.8,3.5-6.5,3.9
		C27.1,50,26.4,50,25.7,50c0.1,0,0.2,0,0.3,0c-0.1,0-0.2,0-0.3,0c-0.4,0-0.8-0.1-1.2-0.1C22.8,49.6,21.3,48.9,20,47.8z"/>
</g>
</svg>
