<?xml version="1.0" encoding="utf-8"?>
<!-- Generator: Adobe Illustrator 22.0.1, SVG Export Plug-In . SVG Version: 6.00 Build 0)  -->
<svg version="1.1" id="Layer_1" xmlns="http://www.w3.org/2000/svg" xmlns:xlink="http://www.w3.org/1999/xlink" x="0px" y="0px"
	 viewBox="0 0 75 75" style="enable-background:new 0 0 75 75;" xml:space="preserve">
<style type="text/css">
	.st0{fill:#FFFFFF;}
</style>
<path class="st0" d="M61.7,21.7c-0.5-2.8-1.4-5.4-2.8-7.8c0,0,0,0,0,0c0,0,0-0.1,0-0.1c-1.9-3.5-4.4-6.5-7.7-8.7
	c-1.2-0.8-2.5-1.4-3.7-2.1c-2.2-1-4.5-1.7-6.9-2.1c-0.7-0.1-1.4-0.2-2.1-0.3c-0.9,0-1.8,0-2.7,0c-0.7,0.1-1.4,0.2-2.1,0.3
	c-5.9,0.9-10.8,3.6-14.8,8c-0.8,0.9-1.4,1.8-2.1,2.8c-2.4,3.6-3.7,7.6-3.9,11.9c0,0-0.1,0-0.1,0c0,0.8,0,1.6,0,2.5c0,0,0,0,0.1,0
	c0,1.6,0.3,3.1,0.7,4.7c1,4,2.9,7.4,5.5,10.6c1.1,1.4,2.4,2.6,3.7,3.6c2.8,2.2,5.9,3.7,9.4,4.5c0,1.6,0,3.1,0,4.8
	c-3.3,0-6.5,0-9.7,0c0,3.3,0,10.6,0,10.6s6.7,0,9.7,0c0,2.9,0,9.7,0,9.7s7.1,0,10.3,0c0-3.2,0-6.4,0-9.7c3.3,0,6.5,0,9.7,0
	c0-3.3,0-10.6,0-10.6s-6.5,0-9.1,0c-0.2,0-0.4,0-0.6,0c0-0.2,0-0.4,0-0.5c0-1.1,0-2.3,0-3.4c0-0.8-0.1-0.7,0.7-0.8
	c6.8-1.7,12-5.5,15.5-11.5C61.7,32.8,62.6,27.4,61.7,21.7z M28,36.1c-1.1-0.9-2-1.9-2.8-3.1c-0.2-0.4-0.4-0.8-0.7-1.2
	c-0.2-0.7-0.5-1.4-0.7-2.1c-2.3-8.1,2.9-16.6,11.1-18.2c5.5-1,10.2,0.6,13.9,4.8c0.1,0.1,0.1,0.1,0.2,0.2c0,0,0,0,0,0
	c1.4,1.8,2.1,3.8,2.5,5.9c0.6,4-0.2,7.8-2.7,11c-2.4,3.2-5.6,5.1-9.6,5.7c-1,0.2-2,0.1-3,0.1c0.2,0,0.3,0,0.5,0c-0.2,0-0.3,0-0.5,0
	c-0.6-0.1-1.2-0.1-1.8-0.2C32.1,38.6,29.9,37.7,28,36.1z"/>
</svg>
