<?xml version="1.0" encoding="utf-8"?>
<!-- Generator: Adobe Illustrator 22.0.1, SVG Export Plug-In . SVG Version: 6.00 Build 0)  -->
<svg version="1.1" id="Layer_1" xmlns="http://www.w3.org/2000/svg" xmlns:xlink="http://www.w3.org/1999/xlink" x="0px" y="0px"
	 viewBox="0 0 150 150" style="enable-background:new 0 0 150 150;" xml:space="preserve">
<style type="text/css">
	.st0{fill:#FFFFFF;}
</style>
<g>
	<path class="st0" d="M123.4,59.9l8.7,6.7c0,0,4.7-33.6-9.4-45.7c0,0-22.2,14.1-18.8,55.1c0,0-14.1-21.5,7.4-50.4
		c0,0-49,12.1-55.7,14.1c0,0-24.8,16.8,0,56.4l64.5,3.6c0,0-20.1-25.7-0.7-69.4C119.4,30.4,126.8,51.9,123.4,59.9z"/>
	<path class="st0" d="M123.2,50.5c0,0-13,18.2,2,32.1c13.8,12.8,21.9,31.1-0.7,46.5c-22.6,15.4-42.3-8.8-75.7,9.8
		c0,0,71.1,30.1,93.4-22.9c0,0,12.1-28.8-7.9-41.3C134.4,74.8,119.9,66.3,123.2,50.5z"/>
	<path class="st0" d="M121.9,82c0,0,8.2,33.1-20.3,49.8c0,0,26.5-1,32.1-17.4C139.1,98.6,122.9,83.9,121.9,82z"/>
	<path class="st0" d="M59,129.2c0,0-59-33.7-23.6-93.4c0,0-2.6-1-10.8,8.5C16.4,53.8,23,6.6,71.5,5c0,0-21.6-10.8-44.9,12.4
		C3.3,40.7-15.7,105.6,59,129.2z"/>
	<path class="st0" d="M60.3,131.1c0,0-31.2-6.2-46.8-29.8C9.3,95,5.4,83.1,4.6,74.5c0,0-4.4,29.3,13.4,46.8
		C34.4,137.3,47.5,138.3,60.3,131.1z"/>
</g>
</svg>
