<?xml version="1.0" encoding="utf-8"?>
<!-- Generator: Adobe Illustrator 22.0.1, SVG Export Plug-In . SVG Version: 6.00 Build 0)  -->
<svg version="1.1" id="Layer_1" xmlns="http://www.w3.org/2000/svg" xmlns:xlink="http://www.w3.org/1999/xlink" x="0px" y="0px"
	 viewBox="0 0 150 150" style="enable-background:new 0 0 150 150;" xml:space="preserve">
<style type="text/css">
	.st0{fill:#FFFFFF;}
</style>
<g>
	<path class="st0" d="M55.2,53.5c0,0-6.3-11.6-25.2-7.8c0,0-3.4,7.2-2.5,12.3H32c0,0-3.7,0.7-4.1,2.5c-0.4,1.8,2.6,17,14.6,20.5
		c0,0,0.6-6,2.2-7.3l0.4,8.2c0,0,29.6,13,38.7-21.4c0,0-10.1,0.1-11.3-1.9c0,0,10.4-0.4,12.6-1.6c0,0,3.5-21.4-19.9-30.3
		c0,0-8.1,3.4-12.2,7.8c0,0,1.8-6.4,6.9-9.1c0,0-18.4-1.9-24.9,2.6c-6.4,4.5-6,8.6-6,10.7c0,0-2.5-2.8-0.7-6.9c0,0-17.9,6.7-21.2,29
		c0,0,14.2-17.6,27.1-18.2c12.9-0.6,26.6,5.3,24,15.5c0,0-1,1.5-2.5,1.9C54.3,60.6,49.7,57.5,55.2,53.5z"/>
	<path class="st0" d="M83,71.1c0,0,10.8-17.3,1-33.7C74.2,21,49.6,20.1,39.9,23.4c0,0,4.1-6.9,16.5-10.3l-0.3,5.3l2.6-6.3
		c0,0,15.4-2.3,27.4,1.6L79.3,21c0,0,9.1-6,14.8-3.1c5.7,2.9,17.4,10.7,18.7,26.1c0,0-8.3,4-14.1,3.4c0,0,5.6,3.1,14.9,1.2
		C113.7,48.6,113.1,81.2,83,71.1z"/>
	<path class="st0" d="M104.9,23.2c0,0,16.5,14.8,8.8,40c0,0,6.6,2.6,8.2,8.1c0,0,8.3-10.1,6.9-21.5l-5.4-2.3l5-0.6
		C128.4,46.8,126.2,27,104.9,23.2z"/>
	<path class="st0" d="M135.8,105.9c-4.2-2.2-8.8-9.5-11-19.6c-2.2-10.1-3.4-15.2-13-20.8c0,0-8.6,16.7-30.5,7.8
		c0,0-10.4,13.5-20.1,13.6c-9.7,0.1-16.5,0.1-24.2-5.6c0,0-9.8,17.6,0.7,32.1c10.5,14.5,23.3,16,24.3,25.2l10.2-9.4
		c0,0-22.3-9.5-19.3-32.5c0,0,0.6,28.6,31,30.9c30.5,2.3,36.8,6,36.8,6s5.6,0.6,6.3-1.8c0,0,15.4-1.5,15.7-20.4
		C142.9,111.5,140.1,108.1,135.8,105.9z M105.4,90.3c-5.9-0.4-11-7.8-11-7.8c23-5.9,25.3,14.2,25.3,14.2
		C115.2,89.5,111.2,90.7,105.4,90.3z"/>
</g>
</svg>
