<?xml version="1.0" encoding="utf-8"?>
<!-- Generator: Adobe Illustrator 22.0.1, SVG Export Plug-In . SVG Version: 6.00 Build 0)  -->
<svg version="1.1" id="Layer_1" xmlns="http://www.w3.org/2000/svg" xmlns:xlink="http://www.w3.org/1999/xlink" x="0px" y="0px"
	 viewBox="0 0 150 150" style="enable-background:new 0 0 150 150;" xml:space="preserve">
<style type="text/css">
	.st0{fill:#FFFFFF;}
</style>
<g>
	<path class="st0" d="M46.9,38.9c0,0,20.6-2.9,21.4-23.2c0,0-6.7,13.3-16.6,12.8c0,0-2.2-14.7,15.6-18.3c0,0-17.2-5.3-32.7,17.5
		c0,0-9.1,19.5-12.5,23.4c0,0,7.3,1.9,11.9,1.4L46.9,38.9z"/>
	<path class="st0" d="M34.2,54.4l-12.7-0.8c0,0-6.3,0.9-0.6,7c5.7,6,18.1,17.2,18.1,17.2s4.6,3.7,5.7-1.4c1.1-5.1,1.4-6.3-1.1-8.8
		c-2.5-2.5-8-8.7-8-8.7S35.2,56.6,34.2,54.4z"/>
	<path class="st0" d="M103.2,38.7c0,0-20.6-2.9-21.4-23.2c0,0,6.7,13.3,16.6,12.8c0,0,2.2-14.7-15.6-18.3c0,0,17.2-5.3,32.7,17.5
		c0,0,9.1,19.5,12.5,23.4c0,0-7.3,1.9-11.9,1.4L103.2,38.7z"/>
	<path class="st0" d="M115.9,54.2l12.7-0.8c0,0,6.3,0.9,0.6,7c-5.7,6-18.1,17.2-18.1,17.2s-4.6,3.7-5.7-1.4
		c-1.1-5.1-1.4-6.3,1.1-8.8c2.5-2.5,8-8.7,8-8.7S115,56.4,115.9,54.2z"/>
	<path class="st0" d="M59.4,58.4L56.1,54c0,0-0.4,6.8-0.5,7.7c-0.1,1-5.2,7.8-7.2,10.8c-1.9,3.1-5.5,9.3-0.4,15.6
		c5.1,6.3,9.5,6.6,20.4,2.9c0,0,8.1-2.7,13.1,0.2c5,3,13.9,4.8,19.4-2.1c5.5-6.9,3.8-12.3-1.6-19c-5.4-6.7-5.7-8.2-5.7-8.2l-0.5-8.3
		l-3.7,4.8C89.6,58.4,76.4,49.9,59.4,58.4z"/>
	<path class="st0" d="M97.6,94.2c0,0-6.4,4.1-14.7-0.5c-8.2-4.5-14.8-1.2-18.8,0.5c-4.1,1.7-10,1.8-12.6-0.6c0,0,6.9,14.5,22.3,14.1
		C89.2,107.1,95.1,99.2,97.6,94.2z"/>
	<path class="st0" d="M48.3,92.2c0,0-7.8,1.4-13.8-2.5c-6-3.9-4.7-2.3-5.6-1.7c0,0-4.5-9.9-10.9-11.4c0,0-7.2-4.1-4.7-14.7
		c0,0-7.4,5.6-0.8,15.3l2.1,0.8c0,0-1.4,0.2-0.6,2.3c0.8,2.1,5.6,12.8,11.4,9.7c0,0-0.8,0.8,0.4,2.1c1.2,1.2,10.5,6.6,22.5,2.1
		C48.1,94.2,49.9,93,48.3,92.2z"/>
	<path class="st0" d="M51.2,97.7c0,0-10.7,4.1-14.9,2.5c-4.1-1.7-6,0.2-6.6,0.8c0,0-9.5-0.6-15.5-8c0,0-9.1-10.3-8.9-14.4
		c0,0-1.9,13.4,3.1,15.5l2.3,0.4c0,0-1.6,2.8,1.4,5.1c3.1,2.3,12.2,5.8,17.1,3.6c0,0-2.5,1.4-0.4,2.5
		C30.9,106.6,47.2,107.9,51.2,97.7z"/>
	<path class="st0" d="M55.1,102.5c0,0-10.5,1.4-13.6,9.3l0.6,1.7c0,0-3.5,0.6-2.9,7.8l0.4,5.4c0,0-2.1,7.4,5.2,10.7
		c0,0-5.2-6-2.3-10.9c0,0,6-8.9,1.9-13.2c0,0,2.7-0.2,3.5-2.9c0.8-2.7,6.2-6,7.8-6.2C55.7,104.1,57.1,102.9,55.1,102.5z"/>
	<path class="st0" d="M57,106.8c0,0-9.1,5.5-8.9,13.4l1.2,1.1c0,0-3,2,0.3,7.8l2.4,4.4c0,0,0.9,7.1,8.8,6.9c0,0-7-2.9-6.2-8.3
		c0,0,2.1-9.9-3.3-11.9c0,0,2.4-1.3,2.1-3.9c-0.3-2.6,3.4-7.6,4.8-8.4C58.2,107.9,59,106.3,57,106.8z"/>
	<path class="st0" d="M101.7,91.9c0,0,7.8,1.4,13.8-2.5c6-3.9,4.7-2.3,5.6-1.7c0,0,4.5-9.9,10.9-11.4c0,0,7.2-4.1,4.7-14.7
		c0,0,7.4,5.6,0.8,15.3l-2.1,0.8c0,0,1.4,0.2,0.6,2.3c-0.8,2.1-5.6,12.8-11.3,9.7c0,0,0.8,0.8-0.4,2.1c-1.2,1.2-10.5,6.6-22.5,2.1
		C101.9,93.9,100.1,92.7,101.7,91.9z"/>
	<path class="st0" d="M98.8,97.4c0,0,10.7,4.1,14.9,2.5c4.1-1.7,6,0.2,6.6,0.8c0,0,9.5-0.6,15.5-8c0,0,9.1-10.3,8.9-14.4
		c0,0,1.9,13.4-3.1,15.5l-2.3,0.4c0,0,1.7,2.8-1.4,5.1c-3.1,2.3-12.2,5.8-17.1,3.6c0,0,2.5,1.4,0.4,2.5
		C119.1,106.3,102.8,107.6,98.8,97.4z"/>
	<path class="st0" d="M94.9,102.2c0,0,10.5,1.4,13.6,9.3l-0.6,1.7c0,0,3.5,0.6,2.9,7.8l-0.4,5.4c0,0,2.1,7.4-5.2,10.7
		c0,0,5.2-6,2.3-10.9c0,0-6-8.9-1.9-13.2c0,0-2.7-0.2-3.5-2.9c-0.8-2.7-6.2-6-7.8-6.2C94.3,103.8,92.9,102.6,94.9,102.2z"/>
	<path class="st0" d="M93,106.5c0,0,9.1,5.5,8.9,13.4l-1.2,1.1c0,0,3,2-0.3,7.8l-2.4,4.4c0,0-0.9,7.1-8.8,6.9c0,0,7-2.9,6.2-8.3
		c0,0-2.1-9.9,3.3-11.9c0,0-2.4-1.3-2.1-3.9c0.3-2.6-3.4-7.6-4.8-8.4C91.8,107.6,91,106,93,106.5z"/>
</g>
</svg>
