<?xml version="1.0" encoding="utf-8"?>
<!-- Generator: Adobe Illustrator 22.0.1, SVG Export Plug-In . SVG Version: 6.00 Build 0)  -->
<svg version="1.1" id="Layer_1" xmlns="http://www.w3.org/2000/svg" xmlns:xlink="http://www.w3.org/1999/xlink" x="0px" y="0px"
	 viewBox="0 0 150 150" style="enable-background:new 0 0 150 150;" xml:space="preserve">
<style type="text/css">
	.st0{fill:#FFFFFF;}
</style>
<g>
	<path class="st0" d="M112.1,35.3c0,0-6.9,9.1-19.8,1.2c0,0-17.4-23.3-46.8-9.6c-29.4,13.7-45.3,69.3-21.1,95
		c0,0-13.2-7.3-18.1-21.5L8.5,98l-2.9-1.7c0,0-7.8-16.9,1.5-43.6l6.6,1.7L9,48.2c0,0,8.3-23.8,32.3-34.5l4.4,6.6l-1-8.6
		C44.8,11.8,92-5.1,112.1,35.3z"/>
	<path class="st0" d="M147.5,80.9c0,0-29.8-3.1-26.2-41.2l-7.8-0.7c0,0-11.4,12.1-22.8-1.2c0,0-2.9-4.6-9.7-4.8
		c-6.8-0.2-15.5-1-18.2-9c0,0-4.4,26.4,25.5,18.2c0,0-7.8,10.4-20.4,2.4c0,0-19.6,13.3-24.7,32.7c-5.1,19.4-4.9,73.2,63.1,63.3
		c0,0-35.2-14.3-5.1-38.8c0,0-41.7-1-20.9-39.5c0,0-5.8,15.8-1.9,23.8c3.9,8,10.9,9,21.1,11.4c10.2,2.4,20.4,5.8,20.4,5.8
		s-11.6,4.4-9.2,12.1c2.4,7.8,10.7,8.7-4.4,14.1c0,0,15,5.8,16.5-9.7c0,0-10.9-9.5,2.4-15.5c0,0,8.2,1.5,5.3-3.6
		c-2.9-5.1-15-6.3-15-6.3s6.5-2.9,14.8,1c8.2,3.9,15.3,2.7,14.3-7.8C144.6,87.4,143.6,82.3,147.5,80.9z M106.1,63.7
		c-5,0.6-10.5-4.7-10.5-4.7c18.3-8.8,23.7,7.7,23.7,7.7C114.2,61.4,111,63.1,106.1,63.7z"/>
</g>
</svg>
