<?xml version="1.0" encoding="utf-8"?>
<!-- Generator: Adobe Illustrator 22.0.1, SVG Export Plug-In . SVG Version: 6.00 Build 0)  -->
<svg version="1.1" id="Layer_1" xmlns="http://www.w3.org/2000/svg" xmlns:xlink="http://www.w3.org/1999/xlink" x="0px" y="0px"
	 viewBox="0 0 150 150" style="enable-background:new 0 0 150 150;" xml:space="preserve">
<style type="text/css">
	.st0{fill:#FFFFFF;}
</style>
<g>
	<path class="st0" d="M130,30c-1.4-8.8-11-6.9-11.5-0.8c-0.5,6,4.9,6,4.9,6c-6.3,5.8-18.7,4.1-28-4.4c-9.3-8.5-11.5-9.7-15.9-8.2
		c-2.6,0.9-4.1,2.6-4.8,4.7c-0.7-2.1-2.1-3.8-4.8-4.7c-4.4-1.4-6.6-0.3-15.9,8.2c-9.3,8.5-21.7,10.2-28,4.4c0,0,5.5,0,4.9-6
		c-0.5-6-10.2-8-11.5,0.8c-1.4,8.8,9.1,12.4,19,11c9.9-1.4,20.5-6.7,23.1-6.6c4.7,0.3,8.5,1.4,10.4,3.6c0.8,0.9,2.1-0.9,2.9-3.6
		c0.7,2.7,2.1,4.5,2.9,3.6c1.9-2.2,5.8-3.3,10.4-3.6c2.5-0.1,13.2,5.2,23.1,6.6C121,42.3,131.4,38.7,130,30z"/>
	<path class="st0" d="M84.2,11.6c0,5-4.1,9.1-9.1,9.1c-5,0-9.1-4.1-9.1-9.1c0-5,4.1-9.1,9.1-9.1C80.2,2.5,84.2,6.6,84.2,11.6z"/>
	<g>
		<path class="st0" d="M11.7,104.4c0,0-0.5-12.1,6.9-15.7c0,0-3-29.7,8-46.4C26.6,42.3,9,55,11.7,104.4z"/>
		<path class="st0" d="M27.1,43.4c0,0-1.9,35.4,28.8,53c0,0-2.5,3-4.7,4.4C51.3,100.8,20,74.7,27.1,43.4z"/>
		<path class="st0" d="M59.5,81.3c0,0-23.9-9.1-30.2-39C29.3,42.3,24.9,73.4,59.5,81.3z"/>
		<path class="st0" d="M43.6,95L33.4,82.4c0,0-17.8,1.9-21.1,23.3c0,0,16.2,2.2,23.6,1.4C35.9,107.1,29,97.2,43.6,95z"/>
		<path class="st0" d="M40.9,80.5c0,0,7.1,11.5,17,14c0,0,3.8-5.2,2.7-12.1C60.6,82.4,46.1,78.6,40.9,80.5z"/>
		<path class="st0" d="M62,83c0,0,4.9,14.3-15.9,23.3c0,0-13.7,5.8-33.8,0.6c0,0,15.7,17,36.5,9.6C69.7,109.1,65,89,62,83z"/>
	</g>
	<g>
		<path class="st0" d="M138.3,103.8c0,0,0.5-12.1-6.9-15.7c0,0,3-29.7-8-46.4C123.4,41.8,141,54.4,138.3,103.8z"/>
		<path class="st0" d="M122.9,42.9c0,0,1.9,35.4-28.8,53c0,0,2.5,3,4.7,4.4C98.7,100.3,130,74.2,122.9,42.9z"/>
		<path class="st0" d="M90.5,80.8c0,0,23.9-9.1,30.2-39C120.7,41.8,125.1,72.8,90.5,80.8z"/>
		<path class="st0" d="M106.4,94.5l10.2-12.6c0,0,17.8,1.9,21.1,23.3c0,0-16.2,2.2-23.6,1.4C114.1,106.6,121,96.7,106.4,94.5z"/>
		<path class="st0" d="M109.1,79.9c0,0-7.1,11.5-17,14c0,0-3.8-5.2-2.7-12.1C89.4,81.9,103.9,78,109.1,79.9z"/>
		<path class="st0" d="M88,82.4c0,0-4.9,14.3,15.9,23.3c0,0,13.7,5.8,33.8,0.5c0,0-15.7,17-36.5,9.6C80.3,108.5,85,88.5,88,82.4z"/>
	</g>
	<path class="st0" d="M73.5,122c-5.7,0-11,0.5-15.7,1.4c1,2.7,6.4,14,25.9,8c0,0-17.5,12.6-33.7-6c-7,2.3-11.3,5.7-11.3,9.4
		c0,7.1,15.6,12.8,34.9,12.8c19.3,0,34.9-5.7,34.9-12.8C108.4,127.7,92.8,122,73.5,122z"/>
	<path class="st0" d="M66.1,38.5c0,0,5.8,8.5,17.6,0.3l-2.7,15.1l-6.9,0.5c0,0,4.9,3,7.4,2.2c0,0-11.3,37.3,1.6,65.6
		c0,0-9.6,10.7-20.3,0.3C62.8,122.5,81.2,71.7,66.1,38.5z"/>
</g>
</svg>
