<?xml version="1.0" encoding="utf-8"?>
<!-- Generator: Adobe Illustrator 22.0.1, SVG Export Plug-In . SVG Version: 6.00 Build 0)  -->
<svg version="1.1" id="Layer_1" xmlns="http://www.w3.org/2000/svg" xmlns:xlink="http://www.w3.org/1999/xlink" x="0px" y="0px"
	 viewBox="0 0 150 150" style="enable-background:new 0 0 150 150;" xml:space="preserve">
<style type="text/css">
	.st0{fill:#FFFFFF;}
</style>
<path class="st0" d="M105,27.6c0,0-8-15.7-40.3-17.6C32.3,8.2,14.5,31.9,9.2,46.7c-5.2,14.8-18.8,69.9,52,73.6
	c0,0-26.5-6.2-37.9-29.6C12,67.4,22.8,54.4,28.6,53.2c0,0-9.5,29.3,5.5,44.3c15.1,15.1,25.2,16.6,49,20.9c0,0,16,4,9.2,21.6
	c0,0,14.5-16.3-4.6-27.7c-19.1-11.4-38.5-3.7-38.2-46.5c0,0-2.5,34.2,33.3,37.9c0,0-14.9-5.3-11.8-16.7c0,0-19.1-12.9-13.1-31.3
	c0,0-1.5,23.1,25.6,32c0,0,6.2,2.5,16.6,1.8c10.5-0.6,19.1,10.5,2.5,18.5c0,0,24,1.5,27.4-24.6c0,0-12,5.8-24,1.2
	c-12-4.6,1.2-16.3,12.6-16c11.4,0.3,18.8-1.5,13.5,15.7c0,0,18.2-8.6,12-24.3c0,0-3.4-4,0.3-7.1c0,0-7.4,2.2-17.9-5.2
	c-10.5-7.4-18.5-24.9-48.3-14.8c0,0-7.7,1.8-16.6,0c-8.9-1.8-21.2-0.9-22.5,0.9c0,0,7.4,12.6,24.3,8c16.9-4.6,42.2-13.5,53.3,6.5
	c0,0-17.9,4.6-26.5-9.5c0,0-9.5-1.2-20.6,5.2c-11.1,6.5-31.1,2.2-34.2-12.3c0,0,14.8-8.6,29.6-1.5c0,0,13.2-7.1,32.3-2.8
	c0,0-22.5-8.9-30.5-4.9C66.8,22.4,78.8,12.5,105,27.6z"/>
</svg>
