<?xml version="1.0" encoding="utf-8"?>
<!-- Generator: Adobe Illustrator 22.0.1, SVG Export Plug-In . SVG Version: 6.00 Build 0)  -->
<svg version="1.1" id="Layer_1" xmlns="http://www.w3.org/2000/svg" xmlns:xlink="http://www.w3.org/1999/xlink" x="0px" y="0px"
	 viewBox="0 0 150 150" style="enable-background:new 0 0 150 150;" xml:space="preserve">
<style type="text/css">
	.st0{fill:#FFFFFF;}
</style>
<g>
	<path class="st0" d="M129.6,90.1l-9.5,4.8c0,0,7.3-5,3.9-17.9c-3.4-12.9,6.6-14.3,7.9-15c0,0-27.2,0.7-22.9,40.8
		c0,0-24.2,23.1-36.7-13.6c0,0-12.7-6.3-3.4-19c0,0-2.9,13.4,5.9,17.2c8.8,3.9,11.6-2,16.5,8.2c0,0,4.5-8.8-6.8-17
		c0,0-10.4-2.7-10.9-10c0,0,4.1,8.8,14.7,7.2c0,0-28.3-12.5-8.4-35.3c0,0-8.2,15.4,0.5,26.5c8.6,11.1,23.3,9.5,34.4-2
		c0,0-6.8-3.6-14,2c0,0,6.6-7.9,17.9-7.2c0,0-0.9-21.1-22.4-26.1c-21.5-5-37.2,4.5-39,7.5c0,0-6.3-5.4-22.2,1.1
		c-15.9,6.6-16.3,25.8-19.9,31.3C11.6,79,8.8,84.2,0,78.5c0,0,5.4,10.4,17.2,1.1C29,70.4,30.8,61.8,36.7,66.1c0,0,3.4-16.8,17-20.4
		c0,0-20.2,12-13.1,38.3c7,26.3,39.2,48,73,22.2c0,0,25.8,6.8,36.5-19C150,87.1,140.9,101.4,129.6,90.1z M107.3,51
		c-2.3-3.7-4.4-3.1-7.4-3.3c-3-0.2-5.6-4-5.6-4C106.1,40.7,107.3,51,107.3,51z"/>
</g>
</svg>
