<?xml version="1.0" encoding="utf-8"?>
<!-- Generator: Adobe Illustrator 22.0.1, SVG Export Plug-In . SVG Version: 6.00 Build 0)  -->
<svg version="1.1" id="Layer_1" xmlns="http://www.w3.org/2000/svg" xmlns:xlink="http://www.w3.org/1999/xlink" x="0px" y="0px"
	 viewBox="0 0 150 150" style="enable-background:new 0 0 150 150;" xml:space="preserve">
<style type="text/css">
	.st0{fill:#FFFFFF;}
</style>
<g>
	<path class="st0" d="M128,45.2C78.5,59.7,27.7,89.8,27.7,89.8L27,94.5c-16,5.7-15.2,18.6-15.2,18.6c-2.7-6.4,0.2-15.4,0.2-15.4
		c-8,4.1-12.1-6-12.1-6c5.9,8.3,22.3-4.2,22.3-4.2l4.5,0.8c49.6-29.1,100-44.1,100-44.1L128,45.2z"/>
	<polygon class="st0" points="124.4,54.3 150,38.5 120.7,39.1 128.3,45.1 	"/>
	<path class="st0" d="M106,51.1c0,0-2.5-7.7-6.5-12.1c-2.5-2.8-6.8-8.2-14.3-10.5c-4.6-1.4-10.4-1.6-17.6,0.6c0,0-7.8,2.2-13.1,11.4
		c-5.2,9.2-12.9,17.1-22,13.7c-9.1-3.4-6.5-11.5-2.6-12c3.8-0.5,7.7,2.5,6.9,7.2c0,0-1.2,2.6-2.5,3.1c0,0,8,3.7,15.5-11.2
		C57.4,26.3,68.3,18,83.7,19c15.4,0.9,21.7,20.1,27.8,18c0,0-1.4,4.5,1.5,11.7c2.9,7.2,2.9,7.2,6.3,8.5c0,0-2.8,1.2-2.2,6.9
		c0.6,5.7,1.2,19.5-4.9,27.7c-6.1,8.2-16.4,15-28.1,16.1c-11.7,1.1-29.4,0.6-24,17.4c0,0,1.5-4.6,5.1-3.8c3.5,0.8,6,4.3,2.2,8.5
		c-3.8,4.1-10.9-2-10.8-9.4c0.2-7.4,0.2-13.5,14.6-16.4c11.1-2.3,23.9-3.5,30.8-14.8c2-3.4,3-7.7,4.4-13C109.8,64,106,51.1,106,51.1
		z"/>
	<polygon class="st0" points="23.9,87.8 39.8,54.5 38.1,54.9 22.3,87.5 	"/>
	<polygon class="st0" points="57.1,114.1 24.4,95.3 23.5,96 57.1,115.3 	"/>
</g>
</svg>
