<?xml version="1.0" encoding="utf-8"?>
<!-- Generator: Adobe Illustrator 22.0.1, SVG Export Plug-In . SVG Version: 6.00 Build 0)  -->
<svg version="1.1" id="Layer_1" xmlns="http://www.w3.org/2000/svg" xmlns:xlink="http://www.w3.org/1999/xlink" x="0px" y="0px"
	 viewBox="0 0 150 150" style="enable-background:new 0 0 150 150;" xml:space="preserve">
<style type="text/css">
	.st0{fill:#FFFFFF;}
</style>
<g>
	<path class="st0" d="M67,63.2c0,0-14-3.6-22.7-2c0,0-7.6,0.3-8.7,14.9l10.9,1.7C46.6,77.8,49.1,64.3,67,63.2z"/>
	<path class="st0" d="M41.2,60.7c0,0-9.5,3.6-7.6,13.5c0,0-9,3.9-14-8.1c0,0-1.4-10.4,7.9-9L41.2,60.7z"/>
	<path class="st0" d="M17.9,62.9c0,0-1.1-11.5,9.3-7.9c0,0-1.4-4.8-10.1-10.9c-8.7-6.2-6.2,2.5-4.2,8.1
		C14.9,57.9,17.9,62.9,17.9,62.9z"/>
	<path class="st0" d="M9.5,42.2c0,0,0-7.3,4.2-2.2c0,0-0.8-12.3,7.9-20.8c0,0-9,1.1-12.6,13.2C6.3,41.3,9.5,42.2,9.5,42.2z"/>
	<path class="st0" d="M16,18.6c0,0,11.2-2.2,16.8-7.8C38.4,5.2,44.9,6.3,49.6,6C54.4,5.7,28.9-2.7,16,18.6z"/>
	<path class="st0" d="M51.9,3.5c0,0-4.8,4.2,13.5,6.7c0,0,8.1,3.6,9.5,9.8C74.9,20,79.6,4.9,51.9,3.5z"/>
	<path class="st0" d="M76.8,15c0,0-1.4,7.3,0.6,11.5c2,4.2,3.6,8.1,1.7,12.6c-2,4.5-0.3,6.4,2.8,8.7c0,0-2.8-8.4,1.7-11.8
		c4.5-3.4,5,12.3-0.8,16.3c0,0,14.6-8.1,3.6-23.6C75.4,13.3,76.8,15,76.8,15z"/>
	<path class="st0" d="M124.8,96c0,0-2.8-13.2-19.3-19.3c-16.5-6.2-33.7-0.6-37.9,5.3c0,0,0-10.7,19.3-10.1c0,0-10.1-11.8-27.5-4.8
		c-17.4,7-19.1,32.5,5,25.8c0,0,0.6,18.8,25.8,19.1c0,0,15.7-0.8,24.7-5.3c0,0-21.3,0.3-26.9-5.3c-5.6-5.6-2.8-11.8,8.1-14.9
		C107.1,83.4,120.3,89,124.8,96z"/>
	<path class="st0" d="M109.6,54.5c0,0,6.4,3.9,3.4,9c0,0,5,18.8,25,13.5c0,0-10.7-3.1-10.9-9.5c0,0,7.9-7.9,20.5,5
		C147.5,72.5,145.3,43,109.6,54.5z"/>
	<path class="st0" d="M111,62.6c0,0,2-5-3.9-7.6c0,0-19.3-2.8-31.7,8.1c0,0,6.7-0.3,9,4.8c0,0,4.5-9.8,12.3-10.7
		C96.7,57.3,109.4,60.1,111,62.6z"/>
	<path class="st0" d="M47.1,90.1c0,0-1.4-1.4-2-2.5c0,0-14.9,3.1-12.6,20.5c0,0,4.2,15.4,13.5,19.1c0,0,2.5,20.5,30.8,19.3
		c0,0-18.5-5.6-18.5-16.8c0,0,20.5-1.7,28,7.9c0,0-3.1-27.2-37.3-19.6c0,0-4.8-7.3-14.3-11.5C34.8,106.4,46.3,97.7,47.1,90.1z"/>
	<path class="st0" d="M44.9,83.4c0,0-27.8,11.2-22.2,38.7c0,0-15.1-16.8,14.3-41.5l10.1-1.7C47.1,78.9,46.6,82.3,44.9,83.4z"/>
	<path class="st0" d="M43.2,78.1c0,0-19.1,3.9-26.4,16c0,0-10.1,11.5-7.8,21.6c0,0-4.4-6.9,0.3-18.8c4.2-10.7,9.3-15.1,27.2-19.3
		L43.2,78.1z"/>
	<path class="st0" d="M33.7,75.8c0,0-27.5,1.4-30.8,25.8c0,0-4.2-19.6,18.5-26.6L33.7,75.8z"/>
	<path class="st0" d="M67.6,61.5l6.5,2.2c0,0-0.8-5,11.8-7.9C85.8,55.9,75.7,52.8,67.6,61.5z"/>
	<path class="st0" d="M65.6,61l-10.4-1.4c0,0,8.7-4.5,17.9-4.5C73.2,55.1,67.9,57,65.6,61z"/>
</g>
</svg>
