<?xml version="1.0" encoding="utf-8"?>
<!-- Generator: Adobe Illustrator 22.0.1, SVG Export Plug-In . SVG Version: 6.00 Build 0)  -->
<svg version="1.1" id="Layer_1" xmlns="http://www.w3.org/2000/svg" xmlns:xlink="http://www.w3.org/1999/xlink" x="0px" y="0px"
	 viewBox="0 0 150 150" style="enable-background:new 0 0 150 150;" xml:space="preserve">
<style type="text/css">
	.st0{fill:#FFFFFF;}
</style>
<g>
	<path class="st0" d="M140.5,16.7c0,0-11.8,16.8-38,10.6c-26.1-6.2-33.3-3.7-37.2,7.4c-3.9,11.1,5.2,12.8-0.2,18.7
		c-5.4,5.9-20,7.2-24.9-4.9C35,35.7,36.2,21.4,53.2,12c17-9.4,45.6,5.2,57.7,6.7C123,20.1,131.9,22.6,140.5,16.7z"/>
	<path class="st0" d="M123.5,74.2c0,0-19.2-12.5-19.8-18.9c0,0,4.9-4.3,0-8.5c0,0-11.9,1.2-15.2-3l10.3,0.3c0,0-3.3-5.8-9.7-9.4
		c-6.4-3.7-13.4-7-17.3-4.6c-4,2.4-7.6,7-2.4,17.3c5.2,10.3-21.3,26.2-33.5-1.5c0,0-2.7-7-0.3-11.6c0,0-31.3,18.4-25.3,62.6
		c6.1,44.2,64.8,48.8,84.9,41.1c0,0-1.2-8.2-10.3-16.7c-9.1-8.5-7-12.8-3.3-19.2c0,0-29.5,9.4-44.7-25.9c0,0,15.2,25,39.6,22.8
		c24.3-2.2,24.7,0.9,28.3,3.7c0,0,6.7-6.1-6.4-11.6c-13.1-5.5-23.1-1.5-23.1-1.5S80,80,89.7,84c9.7,4,16.7,16.7,31.7,2.7
		C121.4,86.7,118.6,79.1,123.5,74.2z M87.6,60c-4.9-0.4-9.2-6.5-9.2-6.5c19.3-4.9,21.3,11.9,21.3,11.9C95.9,59.4,92.5,60.4,87.6,60z
		"/>
</g>
</svg>
