<?xml version="1.0" encoding="utf-8"?>
<!-- Generator: Adobe Illustrator 22.0.1, SVG Export Plug-In . SVG Version: 6.00 Build 0)  -->
<svg version="1.1" id="Layer_1" xmlns="http://www.w3.org/2000/svg" xmlns:xlink="http://www.w3.org/1999/xlink" x="0px" y="0px"
	 viewBox="0 0 150 150" style="enable-background:new 0 0 150 150;" xml:space="preserve">
<style type="text/css">
	.st0{fill:#FFFFFF;}
</style>
<g>
	<path class="st0" d="M74.9,90.4c0,0,7.8-18.9,8.6-31.3c0.8-12.4,5.9-25.6-11.3-45.3C54.9-5.9,23.3,2.4,15.8,21.6
		c-7.6,19.2-2.7,30,5.1,36.7c0,0-2.4-5.7,4.9-9.4c0,0-4.9,13.5,1.3,23.8c0,0,11.3,3.8,19.7-12.4c0,0,3.2,16.2-3.5,24.3
		c0,0,15.1-7.6,21.1-27.5c0,0,15.7-9.7,11.1-28.6C75.4,28.3,91.1,30.2,74.9,90.4z"/>
	<path class="st0" d="M14.4,55.6c0,0,12.1,12.1,11.6,27.8c0,0,11.9-7.3,20-16.7c0,0-1.6,13.8-5.9,19.4c-4.3,5.7-10.3,14.3-7.8,18.4
		c0,0-19.4-6.7-20.5-21.1C10.6,69.1,15,60.2,14.4,55.6z"/>
	<path class="st0" d="M13.1,91.8c0,0-0.3,23.2,10.8,27.3c11.1,4,20.8,4,22.4,6.7c0,0,3.8-27.8,0.3-40.7c0,0-18.6,12.1-10.8,27.3
		c0,0-2.7-6.5-11.3-8.6C18.7,102.2,14.2,95.8,13.1,91.8z"/>
	<path class="st0" d="M73,48c0,0,5.4,17-4,28.9c0,0-10-2.2-9.7,7.8c0.3,10-0.3,18.1,5.7,16.5c5.9-1.6,16.2-4.3,18.9,3.5
		c2.7,7.8,2.7,12.4,2.7,12.4l-4.6,5.4c0,0-9.2-11.3-20.5-13.5l-0.3,7.6c0,0-2.4-9.4-9.7-14.6c0,0,1.6-14-2.4-18.6
		c0,0,14.6-10,15.4-26.4C64.4,57,70.3,53.2,73,48z"/>
	<path class="st0" d="M51.4,105c0,0,12.4,4.6,7.1,29.5c0,0-16.6,10.6-31.2-6.3c0,0,9.1-5.8,23.4,2C50.7,130.2,43.5,124.3,51.4,105z"
		/>
	<path class="st0" d="M63.4,111.4c0,0,13,7.4,8.1,25.4c0,0-6.3,8.1-25.5,5.3c0,0,11-6.9,17-6.6C62.9,135.5,60.6,130.7,63.4,111.4z"
		/>
	<path class="st0" d="M83.6,138.6c0,0,0.9-13.2-8.3-21.4c0,0-5.7,11.9,2.9,20.2c0,0-7.6-3-11.9,10C66.3,147.4,79.6,148.9,83.6,138.6
		z"/>
	<path class="st0" d="M86,133.3c0,0-4.7-9.2,3.5-16.8c0,0,3.6-2.9,2.3-5.7c0,0,9.5,2.8-0.3,18.4c0,0,12.3-6.8,17.9,1.4
		c0,0-5-0.5-7.3,2.1C99.7,135.2,91.9,139.4,86,133.3z"/>
	<path class="st0" d="M98.6,122.6c0,0-5.6-11.1,5.6-15.8C104.2,106.8,109,116.9,98.6,122.6z"/>
	<path class="st0" d="M100.2,123.4c0,0,7.3-10,16.6-2.3C116.8,121.1,110,130,100.2,123.4z"/>
	<path class="st0" d="M109.9,114.9c0,0-6.9-10.3,3.6-16.4C113.4,98.6,119.5,108,109.9,114.9z"/>
	<path class="st0" d="M111.6,115.5c0,0,5.9-10.9,16.2-4.4C127.7,111.1,122.1,120.8,111.6,115.5z"/>
	<path class="st0" d="M120.9,105.7c0,0-8.8-7.2-1.2-15.3C119.7,90.4,127.4,97.1,120.9,105.7z"/>
	<path class="st0" d="M122,107.5c0,0,2.3-11.1,13-8.1C135,99.3,132.6,109.3,122,107.5z"/>
	<path class="st0" d="M126,93.3c0,0-8.2-6.7-1.1-14.2C124.9,79.1,132.1,85.3,126,93.3z"/>
	<path class="st0" d="M129.3,81.3c0,0-8.5-4.7-3.4-12.7C125.9,68.7,133.5,73.1,129.3,81.3z"/>
	<path class="st0" d="M131.7,78c0,0-2.7-9.3,6.5-11.4C138.2,66.6,140.4,75.1,131.7,78z"/>
	<path class="st0" d="M130.2,69.9c0,0-8.3-3-4.9-10.9C125.3,59,132.8,61.9,130.2,69.9z"/>
	<path class="st0" d="M131.9,68c0,0-2.5-8.4,5.9-10.3C137.8,57.6,139.8,65.3,131.9,68z"/>
	<path class="st0" d="M130.8,62c0,0-6.3-6.2,0.2-11.9C130.9,50.1,136.4,55.8,130.8,62z"/>
	<path class="st0" d="M125.5,97.3c0,0,2.2-10.3,12.1-7.5C137.6,89.8,135.4,99,125.5,97.3z"/>
	<path class="st0" d="M129.5,88.7c0,0-1.5-10.4,8.8-11.2C138.3,77.5,139.4,86.9,129.5,88.7z"/>
</g>
</svg>
